<?xml version="1.0" encoding="utf-8"?>
<!-- Generator: Adobe Illustrator 21.1.0, SVG Export Plug-In . SVG Version: 6.00 Build 0)  -->
<svg version="1.1" id="Layer_1" xmlns="http://www.w3.org/2000/svg" xmlns:xlink="http://www.w3.org/1999/xlink" x="0px" y="0px"
	 viewBox="0 0 443.2 89.1" style="enable-background:new 0 0 443.2 89.1;" xml:space="preserve">
<style type="text/css">
	.st0{display:none;}
	.st1{display:inline;fill:#A4A4A4;}
	.st2{fill:#FFFFFF;}
</style>
<g id="Layer_2" class="st0">
	<rect class="st1" width="150" height="32.4"/>
</g>
<g id="Logo_w_x2F__shield_process_maroon" class="st0">
</g>
<g id="Layer_3">
	<g>
		<path class="st2" d="M9.6,3.5v34.6h5.6v-33h6.7v33.1h23.2V5.1h6.7v33.1h6.1V3.5H9.6z M26.6,37.5H23V6.3h3.6V37.5z M29.5,35.2h-1.9
			V7.6h1.9V35.2z M31.2,34.2h-0.9V8.9h0.9V34.2z M34.4,33.6h-1.9v-1.7h1.9V33.6z M36.7,34.1h-0.9V8.8h0.9V34.1z M39.4,35.2h-1.9V7.6
			h1.9V35.2z M44,37.5h-3.6V6.3H44V37.5z"/>
		<path class="st2" d="M64.9,6.7c3.4,0,3.9,1.5,6.3,6c3.1,5.7,11.4,28.9,15.1,39.7l7.2-0.9c4.8-16.3,10.7-32.1,17.4-47.7H94.7
			l-0.9,2.8c5.8,0,8.1,1.5,8.1,5.1c0,4.2-9.5,28.3-11.2,34.4h-0.1c-6.4-15.7-12-32.3-12-35.1c0-2.7,1.6-4.3,7.8-4.3l0.9-2.8H65.8
			L64.9,6.7L64.9,6.7z"/>
		<path class="st2" d="M123.1,51.5l0.9-2.8c-5.1-0.1-5.7-1.2-5.7-6.4V21c0-1.6,0.1-3.4,0.1-4.5c-3.3,1.3-6.9,2.1-10.4,2.5l-0.9,2.8
			c3.9,0.1,5.5,1.2,5.5,4.5v18c0,3.1-1.2,4.2-4.5,4.3l-0.9,2.8h15.9V51.5z M118.6,8.4c0-1.9-0.4-2.6-1.3-2.6c-1.2,0-5,0.9-5,2.3
			c0,1.9,0.1,2.6,0.1,3.7c0,0.9-0.1,1.6-0.1,2.3C118.5,11.7,118.6,11.9,118.6,8.4L118.6,8.4z"/>
		<path class="st2" d="M142.3,51.5l0.9-2.8c-6.6,0.1-7.2-1.4-7.2-8.4c0-9.2,0.9-13.1,3.1-15.7c1.4-1.4,3-1.7,7.3-1.9l2.2-6.3
			c-6.9,0-11.6,4.3-13.2,10h-0.1v-10c-3.1,1-6.3,1.9-9.5,2.5l-0.9,2.8c4.6,0,5.5,0.8,5.5,4.3v19c0,2.7-0.8,3.5-4.3,3.7l-0.9,2.8
			H142.3L142.3,51.5z"/>
		<path class="st2" d="M172.1,56.9c0,4.5-6.3,6.7-13.6,6.7c-5.9,0-8.7-3.3-8.7-6.2s1-4.5,2-5.9c1.5,0.4,5.1,0.4,13,0.4
			C169.6,52,172.1,54.1,172.1,56.9L172.1,56.9z M152,29.6c0-8.2,1-9.4,5.7-9.4c6.9,0,8.3,1.9,8.3,8.8s-1.2,9.2-5.7,9.2
			C155,38.3,152,35.9,152,29.6L152,29.6z M176.6,17.2c-3.8,0.1-6,0.2-9.2,1c-1.8-1.3-4.7-1.8-7.8-1.8c-8.3,0-12.8,5.8-12.8,14.8
			c0,4.8,1.7,7.9,5.9,10.1c-3.9,2.5-5.6,3.9-5.6,6.1c0,1.4,1,2.7,2.2,3.1c-3.4,2.3-4.8,4.9-4.8,8.9c0,6.8,7.1,9.2,12.7,9.2
			c8.2,0,19.1-4.3,19.1-13.9c0-5.1-3.4-7.6-9.2-7.6c-3.1,0-6.3,0.3-9,0.3c-3.1,0-4.8-0.5-4.8-1.9c0-1.7,1.7-3.2,2.7-3.2
			c11.1,0,15.7-7.5,15.7-14.8c0-1.6-0.7-4.1-1.9-6.2l5.4,0.3L176.6,17.2L176.6,17.2z"/>
		<path class="st2" d="M192.7,51.5l0.9-2.8c-5.1-0.1-5.7-1.2-5.7-6.4V21c0-1.6,0.1-3.4,0.1-4.5c-3.3,1.3-6.9,2.1-10.4,2.5l-0.9,2.8
			c3.9,0.1,5.5,1.2,5.5,4.5v18c0,3.1-1.2,4.2-4.5,4.3l-0.9,2.8h15.9V51.5z M188.2,8.4c0-1.9-0.4-2.6-1.3-2.6c-1.2,0-5,0.9-5,2.3
			c0,1.9,0.1,2.6,0.1,3.7c0,0.9-0.1,1.6-0.1,2.3C188.1,11.7,188.2,11.9,188.2,8.4L188.2,8.4z"/>
		<path class="st2" d="M222,39.9c0,8-1.1,8.1-5.4,8.8l-0.9,2.8h16l0.9-2.8c-3.9-0.1-4.9-1.6-4.9-4.6V25.7c0-5.1-3.6-9.2-9.8-9.2
			c-6.6,0-9.5,3.4-12.7,7.8H205v-7.8c-3.4,1.3-6.3,2.2-9.7,2.8l-0.9,2.8c4.7,0.1,5.4,0.7,5.4,8.3v10.1c0,6.9-0.5,7.2-4.3,8.2
			l-0.9,2.8h16.8l0.9-2.8c-5.6-0.5-6.9-1.3-6.9-8.1v-3.5c0-11.6,3-15.7,9-15.7c5.1,0,7.5,2.2,7.5,8.8L222,39.9L222,39.9z"/>
		<path class="st2" d="M249.4,51.5l0.9-2.8c-5.1-0.1-5.7-1.2-5.7-6.4V21c0-1.6,0.1-3.4,0.1-4.5c-3.3,1.3-6.9,2.1-10.4,2.5l-0.9,2.8
			c3.9,0.1,5.5,1.2,5.5,4.5v18c0,3.1-1.2,4.2-4.5,4.3l-0.9,2.8h15.9V51.5z M244.9,8.4c0-1.9-0.4-2.6-1.3-2.6c-1.2,0-5,0.9-5,2.3
			c0,1.9,0.2,2.6,0.2,3.7c0,0.9-0.1,1.6-0.2,2.3C244.9,11.7,244.9,11.9,244.9,8.4L244.9,8.4z"/>
		<path class="st2" d="M281,48.7c-4-0.1-4.9-1.5-4.9-3.6V25.3c0-6.3-2.7-8.8-11-8.8c-6,0-8.4,0.7-10.4,1.4l-1.8,4.8
			c3.4-0.7,6.8-1.6,10.2-1.6c5.1,0,7.2,1.8,7.2,4.5v3.7c-6.7,4.3-19.7,6.2-19.7,15.1c0,5.3,4.4,8.1,9.1,8.1c5.4,0,8-1.6,10.9-6h0.1
			v5.1h8.9L281,48.7L281,48.7z M270.4,40c0,4-2.7,8.2-8.5,8.2c-2.8,0-5.1-2.2-5.1-5.2c0-5.1,6.1-6.9,13.6-10.4V40L270.4,40z"/>
		<path class="st2" d="M288.1,51.7H311l0.9-2.8c-7.8-0.1-8.9-2.1-8.9-13V17.5c0-5.1,0.1-7.7,0.3-10.3c11,0,12.7,1,13.4,9.8l3.3-1.2
			V3.9h-39.7V17l3.3-1.2c0.7-7.6,1.9-8.6,13.4-8.6c0.1,2.6,0.3,5.5,0.3,10.3v18.3c0,10.9-1.2,12.8-8.2,13L288.1,51.7L288.1,51.7z"/>
		<path class="st2" d="M342.9,46.4c-3.2,0.6-6.4,1.5-9.6,1.5c-9,0-12.7-5.7-12.7-14.9l23.6-0.6c0-11.2-5.8-15.8-13.6-15.8
			c-8.9,0-16.1,7.3-16.1,18.2c0,11.2,7.2,17.7,16.9,17.7c3.4,0,6.8-0.7,10.1-1.5L342.9,46.4L342.9,46.4z M320.6,29.7
			c1.5-7.9,3.7-9.8,8.7-9.8c4.9,0,8,3.6,8,6.6c0,1.9-0.7,2.5-4.5,2.6L320.6,29.7L320.6,29.7z"/>
		<path class="st2" d="M370.6,17.5c-1.7-0.4-3.4-0.9-6.1-0.9c-10.3,0-18.2,6.6-18.2,18.3c0,11.5,6.4,17.6,17.9,17.6
			c1.7,0,4.5-0.3,7.2-0.9l1.5-4.8c-2.2,0.4-5,1-7.8,1c-8.1,0-12.7-4.3-12.7-14.5c0-4.9,1.6-10.3,3.7-11.7c0.9-0.6,2.7-1,4.9-1
			c4,0,7.2,1,10.3,1.9L370.6,17.5L370.6,17.5z"/>
		<path class="st2" d="M378.3,17.1V41c0,6.7-0.5,7.1-4.5,8l-0.9,2.8h16.6l0.9-2.8c-5.3-0.5-6.5-1.2-6.5-7.9v-3.4
			c0-11.4,2.9-15.3,8.8-15.3c5,0,7.3,2.2,7.3,8.6v9.5c0,7.8-1.1,7.9-5.5,8.6l-0.9,2.8H410l0.9-2.8c-4.4-0.1-5.4-1.6-5.4-4.5v-18
			c0-4.9-3.5-9-9.5-9c-6.5,0-9.2,3.2-12,6.8h-0.1v-7.3V14c0-7.1,0.1-11.6,0.3-13c-2.5,1-7.9,2.4-11.6,3.3l-0.9,2.8
			c5.2,0.1,6.7,0.6,6.7,7.6v2.4H378.3z"/>
		<g>
			<g>
				<path class="st2" d="M9.6,39.9V41c0,0,0,4.4,0,8.3c0,0-0.4,3.1,1.5,4.5C12.9,55.1,33.7,64,33.7,64s21-9,22.6-10.5
					c1.5-1.3,1.5-4.2,1.5-4.2c0-3.9,0-8.3,0-8.3v-1.2L9.6,39.9z M18.4,52.2H16v-6.8l0,0l-1.8,0.8l-0.4-1.9l2.6-1.1h2V52.2z
					 M27.8,52.4c-2.5,0-3.5-1.4-3.5-2.5s0.6-1.8,1.5-2.2l0,0c-0.8-0.5-1.3-1.2-1.3-2c0-1.6,1.4-2.6,3.3-2.6l0,0
					c2.3,0,3.2,1.3,3.2,2.4c0,0.8-0.4,1.5-1.3,1.9l0,0c0.8,0.3,1.6,1,1.6,2.2C31.5,51.2,30.1,52.4,27.8,52.4z M42.4,44.7l-3.6,7.5
					h-2.7l3.6-7l0,0h-4v-2.1h6.7V44.7z M53.6,52.2h-6.7v-1.5l1.3-1.1C50,48,51,47.1,51,46.1c0-0.7-0.4-1.1-1.4-1.1
					c-0.8,0-1.4,0.4-1.9,0.7L47,43.9c0.7-0.5,1.8-0.9,3.1-0.9c2.1,0,3.4,1.1,3.4,2.9c0,1.4-1,2.6-2.1,3.5l-0.9,0.7l0,0h3.1V52.2z
					 M27.7,48.3c-0.6,0.2-1,0.6-1,1.2c0,0.6,0.5,1.2,1.1,1.2l0,0c0.6,0,1.1-0.4,1.1-1C29,49,28.5,48.5,27.7,48.3z M28.1,46.7
					c0.4-0.1,0.8-0.5,0.8-1s-0.3-1.1-1-1.1l0,0c-0.7,0-1,0.4-1,1C26.9,46.1,27.4,46.5,28.1,46.7z"/>
			</g>
		</g>
	</g>
</g>
</svg>
