<?xml version="1.0" encoding="utf-8"?>
<!-- Generator: Adobe Illustrator 21.1.0, SVG Export Plug-In . SVG Version: 6.00 Build 0)  -->
<svg version="1.1" id="Layer_1" xmlns="http://www.w3.org/2000/svg" xmlns:xlink="http://www.w3.org/1999/xlink" x="0px" y="0px"
	 viewBox="0 0 226 45" style="enable-background:new 0 0 226 45;" xml:space="preserve">
<style type="text/css">
	.st0{fill:#8B1F41;}
	.st1{fill:#FF6600;}
</style>
<path class="st0" d="M51.2,2c-5.6,0-10.8,3.1-13.5,8l-3.3,6.1L34,16.9l-0.4,0.7l0,0L23.6,36L7.3,5.5h7.3l5.8,10.9l3.1,5.7l3.2-5.6
	l6.1-10.9h5.3C39.4,4.2,40.9,3,42.5,2H30.7l-7.1,12.7L16.7,2H1.4l22.2,41.6L36,20.7l2.1-3.8l0.4-0.7l2.4-4.4
	c0.1-0.2,0.3-0.5,0.4-0.7c1.6-2.5,4-4.3,6.9-5.1c0.8-0.2,1.6-0.4,2.4-0.4c0.3,0,0.5,0,0.8,0h32.4l-3.3,6.1h-15l-1,1.9l-14,26h-7.4
	L55.3,17l2.8-5.2H43.5c-0.8,1.3-2,3.6-2,3.6h10.7l-15,27.8h15.4l14.9-27.9h15L89.6,2H51.2z"/>
<g>
	<path class="st1" d="M109.2,14.8c0,0,1.7-3.8,2.5-5.7s1.7-3.8,2.5-5.7c0.2-0.4,0.5-0.8,0.9-1c0.4-0.3,0.8-0.4,1.3-0.4h2.1
		l-8.1,18.5h-3.1L99.3,2h2.1c0.2,0,0.5,0,0.7,0.1s0.4,0.2,0.6,0.3s0.4,0.3,0.5,0.5c0.2,0.2,0.3,0.4,0.4,0.6l5,11.4l0.3,0.7
		L109.2,14.8z"/>
	<path class="st1" d="M124.7,20.4h-3.4V2h3.4V20.4z"/>
	<path class="st1" d="M162.7,10.6v7.7c-0.5,0.5-1,0.8-1.5,1.1c-0.5,0.3-1.1,0.5-1.7,0.7c-0.6,0.2-1.2,0.3-1.8,0.4s-1.3,0.1-1.9,0.1
		c-1.3,0-2.5-0.2-3.7-0.7c-1.1-0.5-2.1-1.2-3-2c-0.9-0.9-1.5-1.8-2-3c-0.5-1.1-0.7-2.4-0.7-3.7c0-0.9,0.1-1.7,0.3-2.5s0.5-1.6,1-2.2
		c0.4-0.7,0.9-1.3,1.5-1.9s1.2-1.1,1.9-1.5s1.5-0.7,2.3-0.9s1.6-0.3,2.5-0.3c0.7,0,1.4,0.1,2,0.2c0.7,0.2,1.3,0.4,1.9,0.7
		c0.6,0.3,1.2,0.6,1.8,1.1c0.6,0.4,1.1,0.9,1.6,1.4l-0.8,0.8c-0.2,0.2-0.5,0.4-0.8,0.6c-0.3,0.1-0.6,0.2-1,0.2
		c-0.5,0-0.9-0.1-1.3-0.4c-0.5-0.3-1-0.6-1.6-0.8c-0.6-0.2-1.2-0.3-1.8-0.3c-0.8,0-1.6,0.2-2.3,0.5s-1.4,0.7-1.9,1.3
		c-0.5,0.5-1,1.2-1.3,1.9s-0.5,1.5-0.5,2.3c0,0.9,0.2,1.6,0.5,2.4c0.3,0.7,0.8,1.4,1.4,1.9s1.2,1,2,1.3s1.5,0.5,2.4,0.5
		c0.4,0,0.8,0,1.2-0.1s0.7-0.1,1.1-0.2c0.4-0.1,0.8-0.3,1.1-0.5v-2.6c-0.4,0-0.7,0-1.1,0c-0.3,0-0.7-0.1-0.9-0.2
		c-0.3-0.1-0.5-0.3-0.7-0.7c-0.2-0.3-0.2-0.8-0.2-1.4v-1h6V10.6z"/>
	<path class="st1" d="M171.5,20.4h-3.4V2h3.4V20.4z"/>
	<path class="st1" d="M180.5,6.6v13.8h-3.4V2h3c0.4,0,0.8,0.1,1.1,0.2c0.3,0.1,0.6,0.3,0.7,0.6c1.3,1.8,8.2,11.6,8.2,11.6V2h3.4
		v18.5h-3.1L180.5,6.6z"/>
	<path class="st1" d="M202.5,20.4h-3.4V2h3.4V20.4z"/>
	<path class="st1" d="M216.4,2h-3.1l-8.1,18.5h2.1c0.2,0,0.5,0,0.7-0.1s0.4-0.2,0.6-0.3c0.2-0.1,0.4-0.3,0.5-0.4
		c0.2-0.2,0.3-0.4,0.4-0.6l1.1-2.5l0,0l2-4.5l0,0l2.2-5.2l2.7,6.3H216c-1.1,0-2.2,0.7-2.6,1.7l-0.7,1.7h6.4l1.1,2.5
		c0.2,0.4,0.5,0.8,0.9,1s0.8,0.4,1.3,0.4h2.1L216.4,2z"/>
	<path class="st1" d="M133.7,20.4h-3.4V2h6.9c0.9,0,1.7,0.2,2.4,0.5s1.3,0.8,1.9,1.3c0.5,0.6,0.9,1.2,1.2,1.9s0.4,1.4,0.4,2.2
		c0,0.5-0.1,1.1-0.2,1.6c-0.1,0.5-0.4,1-0.6,1.5c-0.3,0.5-0.6,0.9-1,1.3c-0.4,0.4-0.9,0.7-1.4,1c0.9,1.2,1.8,2.4,2.7,3.7
		c0.9,1.2,1.8,2.4,2.7,3.6h-2.6c-0.2,0-0.4,0-0.6-0.1c-0.2-0.1-0.5-0.2-0.8-0.4c-0.3-0.2-0.5-0.4-0.8-0.7c-0.3-0.3-0.6-0.6-0.8-1
		l-3.4-4.5h-2.5L133.7,20.4L133.7,20.4z M137.4,10.4c0.3,0,0.6-0.1,0.9-0.2c0.3-0.1,0.6-0.3,0.8-0.6c0.2-0.2,0.4-0.5,0.5-0.8
		s0.2-0.6,0.2-0.9c0-0.3-0.1-0.7-0.2-1c-0.1-0.3-0.3-0.6-0.5-0.8c-0.2-0.2-0.5-0.4-0.8-0.6c-0.3-0.1-0.6-0.2-0.9-0.2h-3.7v5h3.7
		V10.4z"/>
</g>
<g>
	<path class="st1" d="M101.8,28.3V25h14.3v3.3h-5.4v15.2h-3.4V28.3H101.8z"/>
	<path class="st1" d="M130.7,43.5h-11.9V25.1h11.9v3.2h-8.5v4.3h6.9v3.2h-6.9v4.5h8.5L130.7,43.5L130.7,43.5z"/>
	<path class="st1" d="M136.4,34.3c0,0.8,0.2,1.6,0.5,2.4c0.3,0.7,0.8,1.4,1.3,1.9c0.6,0.5,1.2,1,1.9,1.3s1.5,0.5,2.4,0.5
		c0.6,0,1.3-0.1,1.8-0.3c0.6-0.2,1.1-0.5,1.6-0.8c0.2-0.1,0.4-0.2,0.6-0.3c0.2-0.1,0.4-0.1,0.7-0.1c0.4,0,0.7,0.1,1,0.2
		c0.3,0.1,0.5,0.3,0.8,0.5l0.8,0.8c-0.5,0.5-1,1-1.6,1.4s-1.1,0.8-1.8,1.1c-0.6,0.3-1.2,0.5-1.9,0.7s-1.3,0.2-2,0.2
		c-1.3,0-2.5-0.2-3.7-0.7c-1.1-0.5-2.1-1.2-3-2c-0.9-0.9-1.5-1.8-2-3c-0.5-1.1-0.7-2.4-0.7-3.7c0-0.9,0.1-1.7,0.3-2.5s0.5-1.6,1-2.2
		c0.4-0.7,0.9-1.3,1.5-1.9s1.2-1.1,1.9-1.5s1.5-0.7,2.3-0.9c0.8-0.2,1.6-0.3,2.5-0.3c0.7,0,1.4,0.1,2,0.2c0.7,0.2,1.3,0.4,1.9,0.7
		c0.6,0.3,1.2,0.6,1.8,1.1c0.6,0.4,1.1,0.9,1.6,1.4l-0.8,0.8c-0.2,0.2-0.5,0.4-0.8,0.5s-0.6,0.2-1,0.2c-0.5,0-0.9-0.1-1.3-0.4
		c-0.5-0.3-1-0.6-1.6-0.8c-0.6-0.2-1.2-0.3-1.8-0.3c-0.8,0-1.6,0.2-2.4,0.5c-0.7,0.3-1.4,0.7-1.9,1.3c-0.6,0.5-1,1.2-1.3,1.9
		C136.5,32.7,136.4,33.5,136.4,34.3z"/>
	<path class="st1" d="M169.2,43.5h-3.4v-7.7h-9.1v7.7h-3.4V25.1h3.4v7.6h9.1v-7.6h3.4V43.5z"/>
</g>
<g>
	<polygon class="st1" points="177.8,43.5 177.3,43.5 177.3,41 177.3,41 176.3,43.5 176,43.5 175,41 174.9,41 174.9,43.5 174.5,43.5 
		174.5,40.5 175.2,40.5 176.1,42.6 177,40.5 177.8,40.5 	"/>
	<polygon class="st1" points="173.9,41 172.9,41 172.9,43.5 172.5,43.5 172.5,41 171.5,41 171.5,40.5 173.9,40.5 	"/>
</g>
</svg>
