<?xml version="1.0" encoding="utf-8"?>
<!-- Generator: Adobe Illustrator 21.1.0, SVG Export Plug-In . SVG Version: 6.00 Build 0)  -->
<svg version="1.1" id="Layer_1" xmlns="http://www.w3.org/2000/svg" xmlns:xlink="http://www.w3.org/1999/xlink" x="0px" y="0px"
	 viewBox="0 0 443.2 89.1" style="enable-background:new 0 0 443.2 89.1;" xml:space="preserve">
<style type="text/css">
	.st0{display:none;}
	.st1{display:inline;fill:#A4A4A4;}
	.st2{fill:#FFFFFF;}
</style>
<g id="Layer_2" class="st0">
	<rect class="st1" width="150" height="32.4"/>
</g>
<g id="Logo_w_x2F__shield_process_maroon" class="st0">
</g>
<g id="Layer_3">
	<g>
		<path class="st2" d="M9.6,16v34.6h5.6v-33h6.7v33.1h23.2V17.6h6.7v33.1h6.1V16H9.6z M26.6,50H23V18.8h3.6V50z M29.5,47.7h-1.9
			V20.1h1.9V47.7z M31.2,46.7h-0.9V21.4h0.9V46.7z M34.4,46.1h-1.9v-1.7h1.9V46.1z M36.7,46.6h-0.9V21.3h0.9V46.6z M39.4,47.7h-1.9
			V20.1h1.9V47.7z M44,50h-3.6V18.8H44V50z"/>
		<path class="st2" d="M64.9,19.2c3.4,0,3.9,1.5,6.3,6c3.1,5.7,11.4,28.9,15.1,39.7l7.2-0.9c4.8-16.3,10.7-32.1,17.4-47.7H94.7
			l-0.9,2.8c5.8,0,8.1,1.5,8.1,5.1c0,4.2-9.5,28.3-11.2,34.4h-0.1c-6.4-15.7-12-32.3-12-35.1c0-2.7,1.6-4.3,7.8-4.3l0.9-2.8H65.8
			L64.9,19.2L64.9,19.2z"/>
		<path class="st2" d="M123.1,64l0.9-2.8c-5.1-0.1-5.7-1.2-5.7-6.4V33.5c0-1.6,0.1-3.4,0.1-4.5c-3.3,1.3-6.9,2.1-10.4,2.5l-0.9,2.8
			c3.9,0.1,5.5,1.2,5.5,4.5v18c0,3.1-1.2,4.2-4.5,4.3l-0.9,2.8h15.9V64z M118.6,20.9c0-1.9-0.4-2.6-1.3-2.6c-1.2,0-5,0.9-5,2.3
			c0,1.9,0.1,2.6,0.1,3.7c0,0.9-0.1,1.6-0.1,2.3C118.5,24.2,118.6,24.4,118.6,20.9L118.6,20.9z"/>
		<path class="st2" d="M142.3,64l0.9-2.8c-6.6,0.1-7.2-1.4-7.2-8.4c0-9.2,0.9-13.1,3.1-15.7c1.4-1.4,3-1.7,7.3-1.9l2.2-6.3
			c-6.9,0-11.6,4.3-13.2,10h-0.1v-10c-3.1,1-6.3,1.9-9.5,2.5l-0.9,2.8c4.6,0,5.5,0.8,5.5,4.3v19c0,2.7-0.8,3.5-4.3,3.7l-0.9,2.8
			H142.3L142.3,64z"/>
		<path class="st2" d="M172.1,69.4c0,4.5-6.3,6.7-13.6,6.7c-5.9,0-8.7-3.3-8.7-6.2s1-4.5,2-5.9c1.5,0.4,5.1,0.4,13,0.4
			C169.6,64.5,172.1,66.6,172.1,69.4L172.1,69.4z M152,42.1c0-8.2,1-9.4,5.7-9.4c6.9,0,8.3,1.9,8.3,8.8s-1.2,9.2-5.7,9.2
			C155,50.8,152,48.4,152,42.1L152,42.1z M176.6,29.7c-3.8,0.1-6,0.2-9.2,1c-1.8-1.3-4.7-1.8-7.8-1.8c-8.3,0-12.8,5.8-12.8,14.8
			c0,4.8,1.7,7.9,5.9,10.1c-3.9,2.5-5.6,3.9-5.6,6.1c0,1.4,1,2.7,2.2,3.1c-3.4,2.3-4.8,4.9-4.8,8.9c0,6.8,7.1,9.2,12.7,9.2
			c8.2,0,19.1-4.3,19.1-13.9c0-5.1-3.4-7.6-9.2-7.6c-3.1,0-6.3,0.3-9,0.3c-3.1,0-4.8-0.5-4.8-1.9c0-1.7,1.7-3.2,2.7-3.2
			c11.1,0,15.7-7.5,15.7-14.8c0-1.6-0.7-4.1-1.9-6.2l5.4,0.3L176.6,29.7L176.6,29.7z"/>
		<path class="st2" d="M192.7,64l0.9-2.8c-5.1-0.1-5.7-1.2-5.7-6.4V33.5c0-1.6,0.1-3.4,0.1-4.5c-3.3,1.3-6.9,2.1-10.4,2.5l-0.9,2.8
			c3.9,0.1,5.5,1.2,5.5,4.5v18c0,3.1-1.2,4.2-4.5,4.3l-0.9,2.8h15.9V64z M188.2,20.9c0-1.9-0.4-2.6-1.3-2.6c-1.2,0-5,0.9-5,2.3
			c0,1.9,0.1,2.6,0.1,3.7c0,0.9-0.1,1.6-0.1,2.3C188.1,24.2,188.2,24.4,188.2,20.9L188.2,20.9z"/>
		<path class="st2" d="M222,52.4c0,8-1.1,8.1-5.4,8.8l-0.9,2.8h16l0.9-2.8c-3.9-0.1-4.9-1.6-4.9-4.6V38.2c0-5.1-3.6-9.2-9.8-9.2
			c-6.6,0-9.5,3.4-12.7,7.8H205V29c-3.4,1.3-6.3,2.2-9.7,2.8l-0.9,2.8c4.7,0.1,5.4,0.7,5.4,8.3V53c0,6.9-0.5,7.2-4.3,8.2l-0.9,2.8
			h16.8l0.9-2.8c-5.6-0.5-6.9-1.3-6.9-8.1v-3.5c0-11.6,3-15.7,9-15.7c5.1,0,7.5,2.2,7.5,8.8L222,52.4L222,52.4z"/>
		<path class="st2" d="M249.4,64l0.9-2.8c-5.1-0.1-5.7-1.2-5.7-6.4V33.5c0-1.6,0.1-3.4,0.1-4.5c-3.3,1.3-6.9,2.1-10.4,2.5l-0.9,2.8
			c3.9,0.1,5.5,1.2,5.5,4.5v18c0,3.1-1.2,4.2-4.5,4.3l-0.9,2.8h15.9V64z M244.9,20.9c0-1.9-0.4-2.6-1.3-2.6c-1.2,0-5,0.9-5,2.3
			c0,1.9,0.2,2.6,0.2,3.7c0,0.9-0.1,1.6-0.2,2.3C244.9,24.2,244.9,24.4,244.9,20.9L244.9,20.9z"/>
		<path class="st2" d="M281,61.2c-4-0.1-4.9-1.5-4.9-3.6V37.8c0-6.3-2.7-8.8-11-8.8c-6,0-8.4,0.7-10.4,1.4l-1.8,4.8
			c3.4-0.7,6.8-1.6,10.2-1.6c5.1,0,7.2,1.8,7.2,4.5v3.7c-6.7,4.3-19.7,6.2-19.7,15.1c0,5.3,4.4,8.1,9.1,8.1c5.4,0,8-1.6,10.9-6h0.1
			v5.1h8.9L281,61.2L281,61.2z M270.4,52.5c0,4-2.7,8.2-8.5,8.2c-2.8,0-5.1-2.2-5.1-5.2c0-5.1,6.1-6.9,13.6-10.4V52.5L270.4,52.5z"
			/>
		<path class="st2" d="M288.1,64.2H311l0.9-2.8c-7.8-0.1-8.9-2.1-8.9-13V30c0-5.1,0.1-7.7,0.3-10.3c11,0,12.7,1,13.4,9.8l3.3-1.2
			V16.4h-39.7v13.1l3.3-1.2c0.7-7.6,1.9-8.6,13.4-8.6c0.1,2.6,0.3,5.5,0.3,10.3v18.3c0,10.9-1.2,12.8-8.2,13L288.1,64.2L288.1,64.2z
			"/>
		<path class="st2" d="M342.9,58.9c-3.2,0.6-6.4,1.5-9.6,1.5c-9,0-12.7-5.7-12.7-14.9l23.6-0.6c0-11.2-5.8-15.8-13.6-15.8
			c-8.9,0-16.1,7.3-16.1,18.2c0,11.2,7.2,17.7,16.9,17.7c3.4,0,6.8-0.7,10.1-1.5L342.9,58.9L342.9,58.9z M320.6,42.2
			c1.5-7.9,3.7-9.8,8.7-9.8c4.9,0,8,3.6,8,6.6c0,1.9-0.7,2.5-4.5,2.6L320.6,42.2L320.6,42.2z"/>
		<path class="st2" d="M370.6,30c-1.7-0.4-3.4-0.9-6.1-0.9c-10.3,0-18.2,6.6-18.2,18.3c0,11.5,6.4,17.6,17.9,17.6
			c1.7,0,4.5-0.3,7.2-0.9l1.5-4.8c-2.2,0.4-5,1-7.8,1c-8.1,0-12.7-4.3-12.7-14.5c0-4.9,1.6-10.3,3.7-11.7c0.9-0.6,2.7-1,4.9-1
			c4,0,7.2,1,10.3,1.9L370.6,30L370.6,30z"/>
		<path class="st2" d="M378.3,29.6v23.9c0,6.7-0.5,7.1-4.5,8l-0.9,2.8h16.6l0.9-2.8c-5.3-0.5-6.5-1.2-6.5-7.9v-3.4
			c0-11.4,2.9-15.3,8.8-15.3c5,0,7.3,2.2,7.3,8.6V53c0,7.8-1.1,7.9-5.5,8.6l-0.9,2.8H410l0.9-2.8c-4.4-0.1-5.4-1.6-5.4-4.5v-18
			c0-4.9-3.5-9-9.5-9c-6.5,0-9.2,3.2-12,6.8h-0.1v-7.3v-3.1c0-7.1,0.1-11.6,0.3-13c-2.5,1-7.9,2.4-11.6,3.3l-0.9,2.8
			c5.2,0.1,6.7,0.6,6.7,7.6v2.4H378.3z"/>
		<g>
			<g>
				<path class="st2" d="M9.6,52.4v1.1c0,0,0,4.4,0,8.3c0,0-0.4,3.1,1.5,4.5c1.8,1.3,22.6,10.2,22.6,10.2s21-9,22.6-10.5
					c1.5-1.3,1.5-4.2,1.5-4.2c0-3.9,0-8.3,0-8.3v-1.2L9.6,52.4z M18.4,64.7H16v-6.8l0,0l-1.8,0.8l-0.4-1.9l2.6-1.1h2V64.7z
					 M27.8,64.9c-2.5,0-3.5-1.4-3.5-2.5s0.6-1.8,1.5-2.2l0,0c-0.8-0.5-1.3-1.2-1.3-2c0-1.6,1.4-2.6,3.3-2.6l0,0
					c2.3,0,3.2,1.3,3.2,2.4c0,0.8-0.4,1.5-1.3,1.9l0,0c0.8,0.3,1.6,1,1.6,2.2C31.5,63.7,30.1,64.9,27.8,64.9z M42.4,57.2l-3.6,7.5
					h-2.7l3.6-7l0,0h-4v-2.1h6.7V57.2z M53.6,64.7h-6.7v-1.5l1.3-1.1c1.8-1.6,2.8-2.5,2.8-3.5c0-0.7-0.4-1.1-1.4-1.1
					c-0.8,0-1.4,0.4-1.9,0.7L47,56.4c0.7-0.5,1.8-0.9,3.1-0.9c2.1,0,3.4,1.1,3.4,2.9c0,1.4-1,2.6-2.1,3.5l-0.9,0.7l0,0h3.1V64.7z
					 M27.7,60.8c-0.6,0.2-1,0.6-1,1.2c0,0.6,0.5,1.2,1.1,1.2l0,0c0.6,0,1.1-0.4,1.1-1C29,61.5,28.5,61,27.7,60.8z M28.1,59.2
					c0.4-0.1,0.8-0.5,0.8-1s-0.3-1.1-1-1.1l0,0c-0.7,0-1,0.4-1,1C26.9,58.6,27.4,59,28.1,59.2z"/>
			</g>
		</g>
	</g>
</g>
</svg>
